<svg id="svg" version="1.1" xmlns="http://www.w3.org/2000/svg" xmlns:xlink="http://www.w3.org/1999/xlink" width="400" height="215.84699453551912" viewBox="0, 0, 400,215.84699453551912"><g id="svgg"><path id="path0" d="M294.846 29.931 C 294.603 30.223,294.549 32.314,294.549 41.499 L 294.549 52.709 295.059 53.122 C 295.776 53.703,318.134 53.772,318.711 53.196 C 319.115 52.792,319.165 52.528,318.780 52.831 C 318.445 53.096,319.710 53.068,307.152 53.091 C 296.288 53.112,295.737 53.085,295.737 52.528 C 295.737 52.355,295.640 52.274,295.521 52.348 C 295.401 52.422,295.303 52.259,295.301 51.983 C 295.299 51.708,295.301 46.797,295.305 41.069 C 295.310 34.140,295.239 30.653,295.093 30.653 C 294.972 30.653,294.873 30.550,294.873 30.424 C 294.873 30.299,294.959 30.249,295.065 30.314 C 295.170 30.379,295.306 30.239,295.368 30.003 C 295.505 29.481,295.248 29.446,294.846 29.931 M203.670 44.026 C 198.413 45.360,195.446 48.538,193.754 54.647 C 193.568 55.319,193.416 56.162,193.416 56.522 C 193.416 57.991,193.115 58.311,192.078 57.945 C 186.222 55.879,175.159 55.019,169.671 56.204 C 168.662 56.422,167.350 56.680,166.757 56.778 C 165.790 56.938,164.966 57.200,161.718 58.385 C 155.119 60.792,149.847 66.413,147.943 73.071 C 146.639 77.634,146.884 85.818,148.429 89.293 C 148.596 89.667,148.732 90.062,148.732 90.170 C 148.732 90.546,149.867 92.717,150.925 94.367 C 151.923 95.922,152.909 96.923,155.603 99.115 C 156.963 100.221,156.979 100.088,155.358 101.127 C 143.343 108.826,141.629 122.219,151.749 129.318 C 152.472 129.825,152.987 130.309,152.894 130.393 C 152.801 130.477,152.243 130.810,151.653 131.134 C 143.862 135.408,141.012 142.265,143.485 150.783 C 145.472 157.624,153.020 162.679,163.303 164.056 C 164.134 164.167,165.640 164.373,166.649 164.513 C 169.244 164.873,182.822 164.863,185.213 164.499 C 186.222 164.345,187.631 164.147,188.343 164.058 C 201.650 162.396,210.760 156.058,213.922 146.263 C 215.569 141.161,215.297 132.219,213.362 127.868 C 213.196 127.494,213.060 127.107,213.060 127.009 C 213.060 126.652,211.441 124.195,210.194 122.657 C 207.790 119.696,203.632 117.109,200.000 116.316 C 197.246 115.715,195.733 115.435,194.387 115.276 C 193.556 115.177,192.634 115.036,192.337 114.962 C 191.569 114.770,187.415 114.419,183.378 114.207 C 181.479 114.107,179.584 113.960,179.169 113.880 C 178.753 113.801,177.151 113.648,175.607 113.540 C 168.851 113.070,166.742 112.563,166.036 111.239 C 165.215 109.697,166.376 107.375,168.783 105.744 C 169.812 105.046,169.787 105.046,172.909 105.826 C 174.339 106.183,183.547 106.304,185.355 105.989 C 186.168 105.847,187.318 105.651,187.911 105.553 C 188.888 105.392,189.953 105.107,191.797 104.513 C 201.963 101.239,208.428 93.182,208.886 83.216 C 208.994 80.868,208.743 77.549,208.330 75.877 C 208.213 75.402,207.995 74.528,207.845 73.934 C 207.545 72.741,205.456 68.343,205.079 68.109 C 204.947 68.028,204.576 67.567,204.255 67.084 C 203.933 66.601,203.585 66.094,203.482 65.957 C 202.889 65.172,205.196 62.106,207.016 61.260 C 208.177 60.720,211.888 60.605,213.495 61.059 C 215.982 61.761,216.124 61.264,216.039 52.127 C 215.964 44.068,216.091 44.531,213.815 44.019 C 211.740 43.552,205.520 43.557,203.670 44.026 M248.570 55.703 C 247.145 55.786,245.251 56.013,244.360 56.206 C 243.470 56.398,242.402 56.618,241.986 56.693 C 236.320 57.717,228.986 62.217,225.507 66.802 C 223.856 68.977,221.263 74.000,221.263 75.021 C 221.263 75.274,221.196 75.548,221.115 75.630 C 220.097 76.647,219.930 82.006,220.900 82.480 C 220.922 82.490,221.765 82.582,222.774 82.684 C 223.783 82.787,226.017 83.027,227.739 83.218 C 229.460 83.409,231.937 83.650,233.243 83.753 C 234.549 83.857,236.444 84.042,237.453 84.164 C 242.461 84.771,243.059 84.603,243.302 82.515 C 244.083 75.809,246.483 72.754,250.974 72.749 C 255.544 72.744,257.128 75.605,257.186 83.972 L 257.205 86.670 254.614 86.819 C 251.679 86.988,246.856 87.638,243.955 88.256 C 243.406 88.373,242.180 88.631,241.230 88.830 C 237.735 89.562,232.744 91.335,230.362 92.690 C 229.609 93.119,228.952 93.470,228.903 93.470 C 228.854 93.470,228.111 93.991,227.251 94.627 C 222.955 97.806,219.771 102.639,218.271 108.257 C 217.037 112.876,217.027 121.082,218.251 124.015 C 218.350 124.253,218.498 124.787,218.580 125.202 C 219.617 130.462,225.575 136.279,231.732 138.044 C 232.445 138.248,233.319 138.512,233.675 138.630 C 234.727 138.980,241.450 139.108,243.173 138.810 C 245.951 138.331,246.403 138.220,247.922 137.641 C 251.477 136.286,254.041 134.528,257.024 131.401 L 259.002 129.326 259.118 130.556 C 259.818 137.969,258.575 137.291,271.452 137.291 C 283.815 137.291,283.032 137.452,282.607 135.001 C 281.872 130.766,281.723 126.303,281.691 107.501 C 281.638 76.521,281.397 73.242,278.791 67.968 C 275.998 62.316,268.286 57.209,261.090 56.246 C 260.496 56.167,259.719 56.018,259.363 55.916 C 258.452 55.655,251.665 55.521,248.570 55.703 M368.915 55.883 C 368.737 55.984,368.154 56.133,367.620 56.213 C 363.969 56.759,359.713 59.121,357.042 62.083 L 355.855 63.400 355.741 60.896 C 355.546 56.655,356.500 56.960,343.683 57.036 C 333.756 57.095,333.532 57.106,332.935 57.552 L 332.326 58.007 332.279 97.163 C 332.236 131.827,332.269 136.369,332.558 136.751 C 332.876 137.172,333.173 137.184,344.320 137.242 L 355.756 137.302 356.291 136.767 L 356.827 136.231 356.846 111.127 C 356.868 80.881,356.912 80.192,358.996 77.265 C 360.434 75.246,365.215 74.512,367.962 75.888 C 370.784 77.302,370.664 75.918,370.834 109.120 C 370.911 124.199,370.997 136.553,371.024 136.574 C 371.051 136.595,371.227 136.765,371.413 136.952 C 371.713 137.251,373.061 137.290,383.016 137.288 C 394.618 137.284,394.587 137.286,395.003 136.496 C 395.327 135.880,395.342 80.178,395.019 76.956 C 394.232 69.113,394.095 68.476,392.485 65.207 C 391.383 62.971,386.972 58.500,385.867 58.500 C 385.781 58.500,385.431 58.300,385.089 58.056 C 384.351 57.531,381.889 56.632,379.924 56.170 C 378.343 55.798,369.469 55.566,368.915 55.883 M296.043 57.221 C 294.399 57.698,294.557 53.690,294.486 96.785 C 294.441 123.844,294.491 135.479,294.655 136.046 C 295.053 137.420,294.829 137.392,305.882 137.468 C 317.080 137.545,318.005 137.493,318.755 136.742 L 319.266 136.231 319.263 97.419 C 319.259 55.038,319.347 57.745,317.965 57.271 C 317.060 56.960,297.098 56.914,296.043 57.221 M6.446 57.618 C 5.889 58.069,5.750 60.019,6.240 60.508 C 6.370 60.638,6.476 60.964,6.476 61.231 C 6.476 61.499,6.566 61.941,6.677 62.213 C 6.787 62.486,7.179 63.729,7.547 64.976 C 8.777 69.142,9.229 70.687,9.598 71.991 C 9.800 72.704,10.040 73.529,10.133 73.826 C 10.356 74.540,10.667 75.591,11.125 77.172 C 11.332 77.885,11.730 79.193,12.010 80.080 C 12.291 80.968,12.520 81.855,12.520 82.052 C 12.520 82.250,12.665 82.690,12.843 83.030 C 13.020 83.370,13.166 83.861,13.167 84.121 C 13.167 84.381,13.265 84.654,13.384 84.727 C 13.502 84.801,13.600 85.093,13.600 85.378 C 13.600 85.662,13.690 86.118,13.801 86.390 C 13.912 86.663,14.164 87.469,14.363 88.181 C 14.561 88.894,14.802 89.719,14.899 90.016 C 15.134 90.737,16.356 94.868,16.655 95.953 C 16.786 96.427,17.017 97.205,17.167 97.679 C 17.317 98.154,17.545 98.931,17.673 99.406 C 17.938 100.391,19.159 104.531,19.424 105.343 C 19.520 105.640,19.762 106.465,19.960 107.178 C 20.158 107.890,20.411 108.696,20.522 108.969 C 20.633 109.241,20.723 109.655,20.723 109.889 C 20.723 110.122,20.815 110.482,20.926 110.688 C 21.038 110.894,21.292 111.646,21.490 112.358 C 21.688 113.071,22.068 114.382,22.334 115.273 C 22.599 116.163,22.988 117.523,23.197 118.295 C 23.406 119.066,23.648 119.892,23.735 120.130 C 24.177 121.332,24.609 122.817,24.609 123.130 C 24.609 123.323,24.694 123.650,24.798 123.856 C 25.000 124.257,25.339 125.381,26.246 128.656 C 26.559 129.784,26.892 130.901,26.987 131.139 C 27.877 133.357,28.018 134.713,27.514 136.212 C 26.919 137.980,26.195 139.492,25.169 141.108 C 23.659 143.483,21.527 144.202,16.015 144.193 C 14.152 144.190,12.198 144.089,11.671 143.968 C 8.963 143.343,8.814 143.899,8.895 154.311 L 8.958 162.583 9.650 163.201 C 10.042 163.551,10.698 163.872,11.162 163.941 C 11.612 164.008,12.414 164.164,12.944 164.288 C 15.864 164.970,23.573 164.951,26.202 164.255 C 35.809 161.714,39.899 156.939,44.297 143.130 C 44.658 141.996,45.171 140.389,45.437 139.557 C 45.703 138.726,46.086 137.464,46.288 136.751 C 46.491 136.039,46.747 135.233,46.858 134.960 C 46.968 134.687,47.059 134.273,47.059 134.040 C 47.059 133.806,47.144 133.447,47.248 133.240 C 47.424 132.891,47.564 132.442,48.479 129.304 C 48.669 128.651,48.902 127.922,48.997 127.685 C 49.092 127.447,49.335 126.622,49.538 125.850 C 49.740 125.078,49.994 124.278,50.101 124.072 C 50.209 123.866,50.297 123.572,50.297 123.418 C 50.297 123.265,50.525 122.414,50.805 121.527 C 51.084 120.640,51.483 119.282,51.692 118.511 C 51.901 117.739,52.147 116.913,52.240 116.676 C 52.332 116.438,52.575 115.613,52.779 114.841 C 52.984 114.069,53.226 113.243,53.319 113.006 C 53.411 112.768,53.657 111.943,53.865 111.171 C 54.072 110.399,54.467 109.039,54.742 108.149 C 55.017 107.258,55.499 105.656,55.812 104.587 C 56.125 103.519,56.462 102.402,56.560 102.105 C 56.658 101.808,56.903 100.982,57.104 100.270 C 57.306 99.557,57.595 98.586,57.747 98.111 C 57.899 97.636,58.141 96.811,58.284 96.276 C 58.427 95.742,58.668 94.916,58.820 94.441 C 58.971 93.967,59.338 92.752,59.634 91.743 C 60.593 88.481,61.320 86.060,61.859 84.336 C 62.148 83.409,62.385 82.509,62.385 82.337 C 62.385 82.164,62.477 81.855,62.589 81.648 C 62.700 81.442,62.953 80.691,63.150 79.978 C 63.348 79.266,63.588 78.440,63.685 78.144 C 63.782 77.847,64.026 77.021,64.227 76.309 C 64.428 75.596,64.823 74.236,65.105 73.287 C 65.387 72.337,65.776 71.025,65.969 70.372 C 66.163 69.719,66.396 68.991,66.488 68.753 C 66.580 68.516,66.826 67.690,67.034 66.919 C 67.243 66.147,67.642 64.790,67.922 63.902 C 68.201 63.015,68.430 62.122,68.430 61.918 C 68.430 61.714,68.513 61.496,68.615 61.433 C 69.430 60.929,69.366 57.837,68.533 57.457 C 67.782 57.116,49.389 57.097,48.753 57.438 C 48.161 57.755,47.501 59.279,47.495 60.345 C 47.493 60.826,47.405 61.312,47.300 61.425 C 47.195 61.538,46.991 62.261,46.847 63.033 C 46.487 64.967,46.296 65.901,45.877 67.782 C 45.679 68.672,45.437 69.838,45.339 70.372 C 45.242 70.907,45.000 72.024,44.801 72.855 C 44.306 74.931,43.810 77.198,43.598 78.359 C 43.500 78.894,43.257 80.059,43.058 80.950 C 42.859 81.840,42.614 83.006,42.514 83.540 C 42.414 84.074,42.180 85.192,41.994 86.023 C 41.809 86.854,41.565 87.971,41.452 88.505 C 41.340 89.039,41.096 90.157,40.910 90.988 C 40.725 91.819,40.482 92.984,40.371 93.578 C 40.032 95.389,39.667 96.989,39.391 97.878 L 39.127 98.724 38.875 97.446 C 38.379 94.935,38.225 94.205,37.878 92.715 C 37.685 91.883,37.433 90.674,37.318 90.026 C 37.203 89.379,37.027 88.748,36.926 88.623 C 36.826 88.499,36.696 87.960,36.637 87.426 C 36.578 86.892,36.368 85.823,36.170 85.051 C 35.972 84.280,35.727 83.162,35.626 82.569 C 35.525 81.975,35.283 80.858,35.089 80.086 C 34.895 79.315,34.647 78.198,34.538 77.604 C 34.429 77.010,34.186 75.893,33.997 75.121 C 33.808 74.350,33.573 73.281,33.474 72.747 C 33.044 70.432,32.761 69.156,32.590 68.753 C 32.489 68.516,32.363 67.982,32.311 67.566 C 32.258 67.151,32.050 66.131,31.849 65.300 C 31.648 64.468,31.402 63.351,31.302 62.817 C 31.203 62.283,31.016 61.572,30.887 61.238 C 30.758 60.904,30.653 60.341,30.653 59.988 C 30.653 59.182,29.922 57.723,29.371 57.428 C 28.498 56.960,7.038 57.138,6.446 57.618 M71.839 57.539 C 71.454 57.748,71.212 58.094,71.129 58.556 C 70.908 59.784,71.155 114.315,71.397 117.755 C 71.695 121.985,72.485 126.681,72.993 127.242 C 73.095 127.355,73.179 127.625,73.179 127.842 C 73.179 131.291,80.418 137.486,85.483 138.373 C 86.017 138.466,87.037 138.649,87.750 138.779 C 89.260 139.055,95.246 139.070,96.816 138.802 C 97.410 138.701,98.332 138.554,98.867 138.474 C 99.863 138.326,101.258 137.899,102.461 137.373 C 102.835 137.209,103.231 137.075,103.341 137.075 C 104.307 137.075,108.206 133.811,110.355 131.203 L 110.942 130.491 110.949 133.422 C 110.955 136.289,110.967 136.363,111.512 136.875 L 112.069 137.399 122.648 137.399 L 133.227 137.399 133.640 136.889 C 134.043 136.392,134.053 135.458,134.053 97.322 L 134.053 58.264 133.523 57.734 L 132.993 57.205 121.890 57.205 C 111.280 57.205,110.765 57.223,110.278 57.617 L 109.768 58.030 109.628 84.331 C 109.463 115.371,109.511 114.642,107.446 117.277 C 104.902 120.523,97.500 120.217,96.545 116.827 C 96.421 116.388,96.197 115.591,96.047 115.057 C 95.835 114.303,95.755 107.798,95.689 86.083 L 95.605 58.081 95.048 57.643 C 94.307 57.060,72.898 56.964,71.839 57.539 M180.281 70.505 C 181.212 70.973,182.307 72.436,182.725 73.769 C 182.939 74.453,183.223 75.247,183.355 75.532 C 183.691 76.259,183.682 86.314,183.344 87.015 C 183.207 87.300,182.971 88.011,182.821 88.595 C 181.576 93.416,174.598 92.807,173.056 87.744 C 172.840 87.035,172.572 86.156,172.462 85.791 C 172.184 84.875,172.209 77.207,172.493 76.118 C 173.405 72.622,174.066 71.448,175.575 70.648 C 176.860 69.966,179.075 69.899,180.281 70.505 M257.117 106.854 C 256.996 107.507,256.842 108.770,256.774 109.660 C 256.219 117.010,252.750 121.847,248.030 121.854 C 244.186 121.859,242.764 119.739,242.750 113.977 C 242.732 106.669,245.429 103.124,252.132 101.648 C 253.620 101.320,255.161 101.020,256.233 100.850 L 257.205 100.696 257.271 103.181 C 257.308 104.548,257.238 106.201,257.117 106.854 M172.585 134.488 C 173.891 134.598,175.300 134.750,175.715 134.825 C 176.131 134.900,178.025 135.041,179.924 135.137 C 190.873 135.694,193.416 136.893,193.416 141.500 C 193.416 145.145,190.739 147.315,185.213 148.150 C 181.775 148.669,172.966 148.383,170.318 147.666 C 169.784 147.521,168.958 147.295,168.484 147.165 C 163.918 145.907,162.174 142.574,164.072 138.736 C 164.842 137.179,165.685 136.235,167.188 135.249 C 168.892 134.132,169.098 134.042,169.671 134.169 C 169.968 134.235,171.279 134.378,172.585 134.488 " stroke="none" fill="#fcdc5b" fill-rule="evenodd"></path><path id="path1" d="M295.842 29.780 C 295.915 30.012,295.995 35.055,296.018 40.987 C 296.041 46.919,296.141 51.853,296.240 51.952 C 296.339 52.051,301.293 52.132,307.249 52.132 C 315.413 52.132,318.147 52.196,318.355 52.392 C 319.244 53.231,319.266 52.958,319.263 41.369 C 319.259 29.996,319.261 30.022,318.471 29.606 C 317.512 29.102,295.679 29.269,295.842 29.780 M325.634 30.593 C 323.811 31.041,324.109 32.035,327.681 37.429 C 329.009 39.434,330.148 41.211,330.212 41.377 C 330.276 41.544,329.797 42.477,329.147 43.452 C 324.334 50.673,323.989 51.411,325.019 52.267 C 325.526 52.688,338.325 52.811,339.126 52.402 C 339.743 52.088,342.025 48.781,345.116 43.723 C 346.490 41.474,346.496 41.500,343.335 36.526 C 341.075 32.970,339.618 30.958,339.126 30.712 C 338.591 30.446,326.663 30.340,325.634 30.593 M378.090 30.588 C 377.495 30.728,377.118 31.269,377.118 31.985 C 377.118 32.507,377.445 33.107,378.919 35.294 C 379.080 35.532,379.566 36.260,380.001 36.913 C 380.436 37.566,380.921 38.295,381.080 38.532 C 381.239 38.770,381.735 39.531,382.182 40.224 L 382.994 41.484 382.593 42.234 L 382.191 42.984 382.074 42.007 C 382.004 41.423,381.765 40.826,381.480 40.523 C 381.218 40.244,381.004 39.959,381.004 39.889 C 381.004 39.820,380.612 39.195,380.133 38.500 C 378.457 36.067,377.672 34.855,377.220 33.999 C 376.626 32.875,375.650 31.462,375.324 31.255 C 374.694 30.854,361.447 31.063,361.070 31.479 C 360.561 32.042,360.621 33.177,361.198 33.887 C 361.465 34.215,361.878 34.809,362.115 35.205 C 362.353 35.602,362.693 36.134,362.871 36.388 C 363.049 36.641,363.382 37.130,363.610 37.475 C 363.839 37.819,364.373 38.618,364.797 39.251 C 365.222 39.885,365.784 40.783,366.047 41.248 L 366.524 42.094 366.047 42.940 C 365.784 43.405,365.222 44.303,364.797 44.936 C 364.373 45.569,363.839 46.369,363.610 46.713 C 363.382 47.057,363.049 47.547,362.871 47.800 C 362.693 48.054,362.353 48.586,362.115 48.982 C 361.878 49.379,361.465 49.973,361.198 50.301 C 360.597 51.041,360.552 52.244,361.107 52.746 C 361.457 53.062,362.280 53.103,368.339 53.103 C 375.911 53.103,375.245 53.226,376.368 51.622 L 376.876 50.896 377.189 51.644 C 377.610 52.651,377.768 52.672,384.970 52.668 C 391.399 52.665,391.875 52.599,392.352 51.643 C 392.483 51.379,392.741 50.993,392.925 50.784 C 393.109 50.575,393.505 49.913,393.806 49.312 C 394.107 48.711,394.507 48.092,394.694 47.936 C 394.882 47.781,395.035 47.579,395.035 47.489 C 395.035 47.398,395.448 46.723,395.953 45.988 C 398.008 42.995,398.489 42.154,398.489 41.554 C 398.489 40.955,398.008 40.113,395.953 37.121 C 395.448 36.386,395.035 35.710,395.035 35.620 C 395.035 35.529,394.882 35.328,394.694 35.172 C 394.507 35.017,394.107 34.398,393.806 33.797 C 393.505 33.196,393.109 32.533,392.925 32.324 C 392.741 32.116,392.483 31.729,392.352 31.465 C 391.871 30.502,391.421 30.442,384.781 30.465 C 381.338 30.477,378.327 30.533,378.090 30.588 M343.584 31.479 C 343.076 32.042,343.136 33.177,343.713 33.887 C 343.980 34.215,344.393 34.809,344.630 35.205 C 344.868 35.602,345.208 36.134,345.386 36.388 C 345.564 36.641,345.897 37.130,346.125 37.475 C 346.353 37.819,346.888 38.618,347.312 39.251 C 347.737 39.885,348.299 40.783,348.561 41.248 L 349.039 42.094 348.561 42.940 C 348.299 43.405,347.737 44.303,347.312 44.936 C 346.888 45.569,346.353 46.369,346.125 46.713 C 345.897 47.057,345.564 47.547,345.386 47.800 C 345.208 48.054,344.868 48.586,344.630 48.982 C 344.393 49.379,343.980 49.973,343.713 50.301 C 343.112 51.041,343.067 52.244,343.622 52.746 C 344.045 53.129,357.258 53.303,357.839 52.933 C 358.165 52.726,359.141 51.313,359.735 50.189 C 360.187 49.333,360.971 48.121,362.648 45.688 C 363.127 44.993,363.519 44.376,363.519 44.316 C 363.519 44.256,363.761 43.918,364.058 43.566 C 364.429 43.125,364.598 42.665,364.598 42.094 C 364.598 41.523,364.429 41.063,364.058 40.622 C 363.761 40.269,363.519 39.932,363.519 39.872 C 363.519 39.812,363.127 39.195,362.648 38.500 C 360.971 36.067,360.187 34.855,359.735 33.999 C 359.141 32.875,358.165 31.462,357.839 31.255 C 357.208 30.854,343.962 31.063,343.584 31.479 " stroke="none" fill="#040404" fill-rule="evenodd"></path><path id="path2" d="M295.381 29.953 C 295.312 30.216,295.170 30.379,295.065 30.314 C 294.959 30.249,294.873 30.299,294.873 30.424 C 294.873 30.550,294.972 30.653,295.093 30.653 C 295.239 30.653,295.310 34.140,295.305 41.069 C 295.301 46.797,295.299 51.708,295.301 51.983 C 295.303 52.259,295.401 52.422,295.521 52.348 C 295.640 52.274,295.737 52.355,295.737 52.528 C 295.737 53.085,296.288 53.112,307.152 53.091 C 319.705 53.068,318.445 53.096,318.778 52.833 C 319.123 52.561,318.917 52.221,318.504 52.380 C 318.329 52.447,318.187 52.418,318.187 52.317 C 318.187 52.215,313.289 52.132,307.303 52.132 C 301.318 52.132,296.339 52.051,296.240 51.952 C 296.141 51.853,296.041 46.860,296.018 40.857 C 295.977 30.522,295.841 28.194,295.381 29.953 " stroke="none" fill="#bce030" fill-rule="evenodd"></path><path id="path3" d="M295.381 29.953 C 295.312 30.216,295.170 30.379,295.065 30.314 C 294.959 30.249,294.873 30.299,294.873 30.424 C 294.873 30.550,294.972 30.653,295.093 30.653 C 295.239 30.653,295.310 34.140,295.305 41.069 C 295.301 46.797,295.299 51.708,295.301 51.983 C 295.303 52.259,295.401 52.422,295.521 52.348 C 295.640 52.274,295.737 52.355,295.737 52.528 C 295.737 53.085,296.288 53.112,307.152 53.091 C 319.705 53.068,318.445 53.096,318.778 52.833 C 319.123 52.561,318.917 52.221,318.504 52.380 C 318.329 52.447,318.187 52.418,318.187 52.317 C 318.187 52.215,313.289 52.132,307.303 52.132 C 301.318 52.132,296.339 52.051,296.240 51.952 C 296.141 51.853,296.041 46.860,296.018 40.857 C 295.977 30.522,295.841 28.194,295.381 29.953 " stroke="none" fill="#bce030" fill-rule="evenodd"></path><path id="path4" d="M295.381 29.953 C 295.312 30.216,295.170 30.379,295.065 30.314 C 294.959 30.249,294.873 30.299,294.873 30.424 C 294.873 30.550,294.972 30.653,295.093 30.653 C 295.239 30.653,295.310 34.140,295.305 41.069 C 295.301 46.797,295.299 51.708,295.301 51.983 C 295.303 52.259,295.401 52.422,295.521 52.348 C 295.640 52.274,295.737 52.355,295.737 52.528 C 295.737 53.085,296.288 53.112,307.152 53.091 C 319.705 53.068,318.445 53.096,318.778 52.833 C 319.123 52.561,318.917 52.221,318.504 52.380 C 318.329 52.447,318.187 52.418,318.187 52.317 C 318.187 52.215,313.289 52.132,307.303 52.132 C 301.318 52.132,296.339 52.051,296.240 51.952 C 296.141 51.853,296.041 46.860,296.018 40.857 C 295.977 30.522,295.841 28.194,295.381 29.953 " stroke="none" fill="#bce030" fill-rule="evenodd"></path></g></svg>